<mxfile host="65bd71144e">
    <diagram id="i7BqpvD6kSRgeRgbhTRY" name="PÃ¡gina-1">
        <mxGraphModel dx="524" dy="303" grid="1" gridSize="10" guides="1" tooltips="1" connect="1" arrows="1" fold="1" page="1" pageScale="1" pageWidth="827" pageHeight="1169" math="0" shadow="0">
            <root>
                <mxCell id="0"/>
                <mxCell id="1" parent="0"/>
                <mxCell id="2" value="inicio" style="ellipse;whiteSpace=wrap;html=1;fillColor=#60a917;strokeColor=#2D7600;fontColor=#ffffff;" vertex="1" parent="1">
                    <mxGeometry x="290" y="20" width="120" height="80" as="geometry"/>
                </mxCell>
                <mxCell id="3" value="" style="shape=image;verticalLabelPosition=bottom;labelBackgroundColor=default;verticalAlign=top;aspect=fixed;imageAspect=0;image=data:image/svg+xml,PHN2ZyB4bWxucz0iaHR0cDovL3d3dy53My5vcmcvMjAwMC9zdmciIHdpZHRoPSI0OCIgaGVpZ2h0PSI0OCIgdmlld0JveD0iMCAwIDQ4IDQ4Ij48cGF0aCBkPSJNNiA0MnYtOC40bDE4Ljg1LTE4Ljg1LTMuNi0zLjZMMjMuMyA5LjFsNC42IDQuNkwzNSA2LjZxLjU1LS41NSAxLjE3NS0uNTV0MS4xNzUuNTVsNC4wNSA0LjA1cS41NS41NS41NSAxLjE3NVQ0MS40IDEzbC03LjEgNy4xIDQuNiA0LjYtMi4wNSAyLjA1LTMuNi0zLjZMMTQuNCA0MlptMy0zaDQuMzVMMzEuMSAyMS4yNWwtNC4zNS00LjM1TDkgMzQuNjVabTIzLjE1LTIxIDYuMi02LjItMi4xNS0yLjE1LTYuMiA2LjJabTAgMEwzMCAxNS44NSAzMi4xNSAxOFoiLz48L3N2Zz4=;" vertex="1" parent="1">
                    <mxGeometry x="540" y="190" width="48" height="48" as="geometry"/>
                </mxCell>
                <mxCell id="5" value="" style="endArrow=classic;html=1;fontColor=#fafaf9;exitX=0.5;exitY=1;exitDx=0;exitDy=0;" edge="1" parent="1" source="2" target="6">
                    <mxGeometry width="50" height="50" relative="1" as="geometry">
                        <mxPoint x="300" y="230" as="sourcePoint"/>
                        <mxPoint x="350" y="150" as="targetPoint"/>
                    </mxGeometry>
                </mxCell>
                <mxCell id="6" value="x,y" style="shape=parallelogram;perimeter=parallelogramPerimeter;whiteSpace=wrap;html=1;fixedSize=1;labelBackgroundColor=none;fontColor=#000000;fillColor=#1ba1e2;strokeColor=#006EAF;" vertex="1" parent="1">
                    <mxGeometry x="290" y="120" width="120" height="60" as="geometry"/>
                </mxCell>
                <mxCell id="7" value="" style="endArrow=classic;html=1;fontColor=#000000;exitX=0.5;exitY=1;exitDx=0;exitDy=0;" edge="1" parent="1" source="6">
                    <mxGeometry width="50" height="50" relative="1" as="geometry">
                        <mxPoint x="350" y="190" as="sourcePoint"/>
                        <mxPoint x="350" y="220" as="targetPoint"/>
                    </mxGeometry>
                </mxCell>
                <mxCell id="9" value="s= x+y&lt;br style=&quot;font-size: 13px;&quot;&gt;r= x-y&lt;br style=&quot;font-size: 13px;&quot;&gt;m= x*y&lt;br style=&quot;font-size: 13px;&quot;&gt;d= x/y&lt;br style=&quot;font-size: 13px;&quot;&gt;de= x//y&lt;br style=&quot;font-size: 13px;&quot;&gt;mod= x%y&lt;br style=&quot;font-size: 13px;&quot;&gt;p=x**y" style="whiteSpace=wrap;html=1;aspect=fixed;labelBackgroundColor=none;fontColor=#000000;fillColor=#a20025;strokeColor=#6F0000;align=center;fontSize=13;" vertex="1" parent="1">
                    <mxGeometry x="280" y="220" width="140" height="140" as="geometry"/>
                </mxCell>
                <mxCell id="10" value="" style="endArrow=classic;html=1;fontColor=#000000;exitX=0.5;exitY=1;exitDx=0;exitDy=0;" edge="1" parent="1" source="9">
                    <mxGeometry width="50" height="50" relative="1" as="geometry">
                        <mxPoint x="240" y="330" as="sourcePoint"/>
                        <mxPoint x="350" y="420" as="targetPoint"/>
                    </mxGeometry>
                </mxCell>
                <mxCell id="11" value="&lt;font color=&quot;#000000&quot;&gt;s,r,m,d,de,m,p&lt;/font&gt;" style="shape=document;whiteSpace=wrap;html=1;boundedLbl=1;labelBackgroundColor=none;fontSize=13;fontColor=#ffffff;fillColor=#6a00ff;strokeColor=#3700CC;" vertex="1" parent="1">
                    <mxGeometry x="290" y="420" width="120" height="80" as="geometry"/>
                </mxCell>
                <mxCell id="12" value="" style="endArrow=classic;html=1;fontSize=13;fontColor=#000000;exitX=0.5;exitY=0.875;exitDx=0;exitDy=0;exitPerimeter=0;" edge="1" parent="1" source="11">
                    <mxGeometry width="50" height="50" relative="1" as="geometry">
                        <mxPoint x="230" y="510" as="sourcePoint"/>
                        <mxPoint x="350" y="550" as="targetPoint"/>
                    </mxGeometry>
                </mxCell>
                <mxCell id="13" value="fin" style="ellipse;whiteSpace=wrap;html=1;labelBackgroundColor=none;fontSize=13;fontColor=#ffffff;fillColor=#d80073;strokeColor=#A50040;" vertex="1" parent="1">
                    <mxGeometry x="290" y="550" width="110" height="70" as="geometry"/>
                </mxCell>
            </root>
        </mxGraphModel>
    </diagram>
</mxfile>